<?xml version="1.0" encoding="UTF-8" standalone="no"?>
<!DOCTYPE svg PUBLIC "-//W3C//DTD SVG 1.1//EN" "http://www.w3.org/Graphics/SVG/1.1/DTD/svg11.dtd">
<svg xmlns="http://www.w3.org/2000/svg" version="1.1" viewBox="0.00 0.00 1016.00 834.00">
<path fill="#04183c" d="
  M 522.84 72.45
  A 0.30 0.30 0.0 0 1 523.29 72.46
  L 527.66 77.48
  A 1.31 1.31 0.0 0 1 527.97 78.45
  L 527.05 87.43
  A 1.58 1.48 -54.5 0 0 527.14 88.10
  Q 528.56 91.69 529.65 92.46
  Q 535.82 96.81 552.57 108.71
  A 3.59 3.50 88.2 0 1 553.34 109.45
  L 565.69 125.59
  A 0.83 0.83 0.0 0 1 565.77 126.46
  L 564.30 129.46
  A 0.95 0.95 0.0 0 1 563.44 130.00
  L 560.64 130.00
  A 1.69 1.63 -28.2 0 1 559.76 129.75
  L 553.98 126.10
  A 1.77 1.73 67.5 0 0 553.42 125.86
  L 534.33 121.09
  A 3.01 2.74 -35.2 0 0 533.61 121.00
  L 512.13 121.00
  A 1.03 0.64 -39.5 0 0 511.90 121.03
  L 494.23 124.95
  A 2.27 2.22 -64.1 0 0 493.73 125.13
  L 484.56 129.75
  A 1.55 1.53 38.2 0 1 483.49 129.87
  L 480.65 129.19
  A 0.79 0.78 1.8 0 1 480.06 128.57
  Q 479.68 126.33 480.58 125.10
  Q 480.94 124.59 487.72 114.44
  A 3.08 2.95 88.8 0 1 488.40 113.70
  Q 495.63 107.95 516.71 91.22
  Q 517.46 90.63 518.87 88.02
  A 1.20 1.18 -34.2 0 0 519.01 87.32
  L 517.97 78.47
  A 1.41 1.39 -27.5 0 1 518.33 77.35
  L 522.84 72.45
  Z"
/>
<path fill="#a2c9e2" d="
  M 464.35 138.84
  A 0.09 0.08 49.0 0 1 464.34 139.01
  Q 430.83 139.24 337.28 139.99
  Q 334.84 140.01 331.72 141.77
  A 0.39 0.38 30.4 0 0 331.91 142.49
  L 332.18 142.50
  A 0.63 0.63 0.0 0 1 332.80 143.01
  Q 333.83 148.60 331.31 152.35
  A 0.69 0.69 0.0 0 0 331.46 153.28
  Q 333.71 155.01 334.75 155.01
  Q 396.37 154.99 459.50 155.01
  Q 461.15 155.01 463.35 155.26
  A 0.21 0.21 0.0 0 1 463.54 155.48
  L 463.54 155.49
  A 0.26 0.25 -3.3 0 1 463.34 155.71
  L 284.40 192.92
  A 0.32 0.32 0.0 0 1 284.01 192.58
  Q 284.77 182.05 285.45 173.53
  Q 286.09 165.45 285.88 154.46
  Q 285.10 112.86 285.04 102.63
  A 0.48 0.47 5.8 0 1 285.62 102.16
  Q 321.49 110.07 370.17 121.12
  Q 394.36 126.62 411.94 129.60
  Q 426.44 132.06 464.35 138.84
  Z"
/>
<path fill="#a2c9e2" d="
  M 580.75 156.23
  A 0.12 0.12 0.0 0 1 580.77 155.99
  Q 698.39 155.07 707.26 155.04
  Q 709.70 155.03 711.75 153.10
  A 0.71 0.70 54.8 0 0 711.89 152.27
  L 709.11 146.75
  A 0.98 0.98 0.0 0 1 709.11 145.87
  L 710.72 142.59
  A 0.58 0.57 22.3 0 0 710.38 141.79
  L 705.44 140.14
  A 2.99 2.95 53.5 0 0 704.54 140.00
  L 581.75 139.01
  A 0.11 0.11 0.0 0 1 581.73 138.79
  Q 635.32 129.21 639.72 128.47
  Q 658.12 125.42 678.08 120.61
  Q 685.00 118.94 753.39 103.16
  Q 755.08 102.77 759.51 103.06
  A 0.54 0.54 0.0 0 1 760.02 103.59
  L 761.98 190.18
  A 2.60 2.59 -84.9 0 1 758.87 192.78
  L 580.75 156.23
  Z"
/>
<path fill="#04183c" d="
  M 555.36 161.88
  L 537.20 158.04
  A 1.56 1.39 48.4 0 0 536.86 158.00
  L 510.42 158.00
  A 4.22 4.17 -51.0 0 0 509.51 158.10
  L 491.33 161.94
  A 0.43 0.43 0.0 0 1 490.81 161.53
  L 490.19 134.25
  A 0.42 0.41 -10.7 0 1 490.47 133.85
  L 504.07 129.31
  A 8.80 8.63 32.2 0 1 505.96 128.90
  Q 516.06 127.78 517.59 127.58
  Q 523.13 126.84 526.97 127.26
  C 531.00 127.70 534.91 127.70 539.44 128.89
  Q 554.36 132.83 554.45 132.86
  A 0.77 0.77 0.0 0 1 555.01 133.57
  L 555.99 161.36
  A 0.52 0.52 0.0 0 1 555.36 161.88
  Z
  M 517.61 131.10
  L 502.87 132.84
  A 3.20 3.19 -4.9 0 0 500.05 136.18
  L 500.98 154.35
  A 0.57 0.57 0.0 0 0 501.57 154.89
  L 515.99 154.14
  A 3.15 3.15 0.0 0 0 518.98 150.83
  L 517.98 131.42
  A 0.33 0.33 0.0 0 0 517.61 131.10
  Z
  M 544.87 154.45
  L 546.14 135.44
  A 0.44 0.42 9.5 0 0 545.81 134.99
  L 530.26 131.25
  A 2.59 2.59 0.0 0 0 527.07 133.74
  L 526.94 150.87
  A 3.13 3.12 2.2 0 0 529.86 154.02
  L 544.25 154.99
  A 0.58 0.58 0.0 0 0 544.87 154.45
  Z"
/>
<path fill="#04183c" d="
  M 384.57 464.66
  Q 389.90 463.15 401.82 460.35
  C 414.55 457.37 432.25 450.91 440.40 448.19
  A 8.57 8.54 20.3 0 0 441.82 447.54
  L 447.54 444.26
  A 1.19 1.17 80.4 0 0 448.10 443.46
  Q 460.18 378.44 460.93 374.67
  Q 464.11 358.65 466.24 340.69
  Q 468.17 324.33 474.69 273.61
  Q 477.34 253.02 478.31 238.13
  Q 478.68 232.46 480.94 202.60
  A 1.72 1.72 0.0 0 0 480.63 201.47
  L 471.45 188.64
  A 1.96 1.94 -68.4 0 1 471.13 187.89
  C 470.38 183.66 471.58 182.46 475.52 181.11
  Q 485.55 177.65 498.59 173.17
  A 4.49 4.21 32.8 0 1 499.90 172.93
  L 538.64 172.06
  A 4.10 3.96 49.8 0 1 539.73 172.17
  L 563.54 177.89
  A 3.43 3.35 -23.0 0 1 564.41 178.23
  L 574.51 183.73
  A 0.94 0.94 0.0 0 1 574.98 184.73
  L 573.88 190.09
  A 0.68 0.64 -21.8 0 1 573.77 190.33
  L 565.47 201.38
  A 2.23 2.19 64.1 0 0 565.02 202.72
  Q 564.92 213.40 565.14 215.32
  Q 576.58 314.75 578.22 329.84
  Q 579.99 346.09 582.62 359.56
  Q 584.00 366.63 598.87 448.39
  A 1.31 1.30 -80.7 0 0 599.52 449.30
  L 605.74 452.85
  A 3.06 2.68 -17.8 0 0 606.27 453.08
  Q 614.61 455.82 621.57 458.24
  Q 629.05 460.84 636.76 462.42
  Q 673.74 470.00 700.78 475.48
  A 0.23 0.23 0.0 0 1 700.74 475.94
  Q 690.27 476.08 679.89 475.96
  Q 669.75 475.86 661.63 476.80
  Q 650.83 478.06 641.70 478.86
  C 625.86 480.24 605.78 484.66 593.79 486.68
  C 577.03 489.50 566.38 492.65 545.72 497.85
  A 2.13 2.06 48.5 0 1 544.40 497.75
  Q 524.48 489.41 523.29 488.87
  C 511.98 483.81 500.93 481.18 488.26 477.14
  Q 480.59 474.70 473.51 473.77
  Q 469.85 473.29 438.28 468.12
  Q 430.58 466.86 422.15 466.57
  Q 396.39 465.68 384.61 464.99
  A 0.17 0.17 0.0 0 1 384.57 464.66
  Z
  M 555.50 212.10
  L 492.40 245.95
  A 0.93 0.93 0.0 0 0 491.92 246.69
  C 491.19 255.50 489.71 264.49 490.27 273.65
  Q 490.96 284.96 491.00 286.42
  A 0.34 0.34 0.0 0 0 491.50 286.71
  L 557.64 251.22
  A 0.66 0.66 0.0 0 0 557.98 250.61
  L 556.02 212.39
  A 0.35 0.35 0.0 0 0 555.50 212.10
  Z
  M 482.67 393.65
  L 563.49 350.28
  A 0.91 0.89 -15.7 0 0 563.96 349.46
  Q 563.86 346.81 563.25 331.39
  C 562.93 323.24 561.44 316.36 560.07 307.32
  A 0.24 0.24 0.0 0 0 559.72 307.15
  L 486.44 345.76
  A 0.94 0.93 -10.7 0 0 485.95 346.47
  Q 482.90 368.98 482.02 376.24
  Q 481.71 378.87 482.15 393.35
  A 0.36 0.35 -14.8 0 0 482.67 393.65
  Z"
/>
<path fill="#04183c" d="
  M 165.90 521.59
  Q 165.93 521.57 184.02 512.44
  Q 191.56 508.63 199.43 505.99
  Q 211.11 502.08 222.93 497.77
  Q 230.33 495.07 238.19 493.43
  Q 265.73 487.67 268.76 486.94
  Q 277.52 484.83 287.88 483.96
  Q 288.38 483.92 317.40 480.96
  Q 327.84 479.90 337.65 479.94
  Q 372.29 480.08 377.68 479.98
  Q 389.47 479.77 401.77 481.02
  Q 409.57 481.81 417.82 482.36
  Q 424.51 482.81 433.76 484.54
  Q 444.87 486.61 459.70 489.11
  Q 469.64 490.79 480.89 493.94
  Q 499.68 499.21 520.28 504.80
  A 0.21 0.21 0.0 0 1 520.28 505.21
  Q 489.64 513.79 459.97 522.23
  Q 448.95 525.37 440.99 526.61
  Q 431.36 528.10 421.72 529.88
  Q 414.34 531.25 409.12 531.07
  Q 403.90 530.89 390.39 531.06
  Q 381.44 531.17 371.77 529.88
  Q 371.44 529.83 319.56 523.94
  Q 300.18 521.74 285.82 520.99
  C 268.17 520.07 256.55 518.86 240.72 518.98
  Q 227.18 519.08 212.36 518.95
  Q 200.56 518.85 189.16 519.87
  Q 166.78 521.89 166.02 521.94
  A 0.19 0.19 0.0 0 1 165.90 521.59
  Z"
/>
<path fill="#1e7cc2" d="
  M 810.24 538.38
  Q 801.52 542.82 772.60 557.68
  Q 763.57 562.33 754.66 565.65
  Q 741.81 570.45 734.89 573.24
  C 721.45 578.65 706.67 582.39 692.60 586.82
  Q 681.40 590.35 671.14 592.31
  Q 663.57 593.76 623.46 602.29
  Q 615.16 604.05 607.27 604.70
  Q 560.00 608.57 553.71 609.22
  Q 545.13 610.10 535.27 609.83
  Q 481.92 608.37 472.17 608.27
  Q 463.79 608.18 456.90 606.91
  Q 452.81 606.16 391.43 596.53
  Q 381.45 594.97 374.07 592.83
  Q 358.94 588.45 343.76 584.33
  Q 330.86 580.83 320.19 576.70
  Q 311.34 573.29 303.04 570.40
  Q 294.82 567.53 286.71 563.41
  Q 274.73 557.32 236.86 538.45
  A 0.25 0.25 0.0 0 1 236.98 537.98
  Q 248.84 538.34 261.17 538.60
  Q 272.29 538.83 285.29 540.04
  Q 363.12 547.31 371.29 548.14
  C 386.35 549.66 398.12 548.95 416.72 549.05
  Q 421.94 549.08 427.66 547.99
  Q 452.82 543.23 468.52 540.45
  Q 475.66 539.18 484.39 536.40
  Q 498.31 531.97 531.22 521.58
  Q 547.92 516.32 562.17 512.98
  Q 577.25 509.46 588.38 506.55
  Q 597.99 504.04 610.72 502.15
  Q 635.05 498.54 654.63 495.40
  Q 664.96 493.74 674.47 493.39
  C 687.09 492.93 698.93 491.82 712.18 492.18
  Q 728.18 492.61 741.79 492.77
  Q 751.74 492.88 761.13 494.21
  Q 772.60 495.82 782.25 496.84
  Q 790.32 497.70 800.81 500.25
  Q 815.37 503.79 826.06 506.11
  Q 833.54 507.73 841.25 510.63
  Q 864.60 519.43 873.35 522.77
  A 0.10 0.10 0.0 0 1 873.31 522.97
  Q 819.88 520.74 762.77 518.36
  Q 752.84 517.95 744.28 518.55
  Q 693.83 522.12 690.45 522.27
  Q 681.96 522.62 671.20 524.52
  Q 618.71 533.79 617.92 533.91
  C 603.78 536.08 590.96 539.99 575.82 543.71
  Q 567.64 545.72 558.77 548.82
  Q 544.40 553.84 523.88 561.00
  Q 517.43 563.25 510.70 564.45
  Q 499.53 566.44 473.56 571.65
  A 0.22 0.22 0.0 0 0 473.58 572.08
  C 482.27 573.05 490.53 572.83 499.47 573.39
  C 505.31 573.75 513.83 574.39 520.50 573.35
  C 525.06 572.64 529.16 572.43 533.80 571.30
  Q 566.80 563.24 591.07 557.12
  Q 603.57 553.97 616.27 551.91
  Q 652.12 546.07 675.22 542.08
  Q 689.18 539.68 699.55 539.01
  C 710.41 538.32 721.05 536.91 732.19 537.06
  Q 778.30 537.66 810.14 537.97
  A 0.22 0.22 0.0 0 1 810.24 538.38
  Z"
/>
<path fill="#04183c" d="
  M 718.43 657.09
  Q 726.19 656.63 748.02 656.10
  Q 751.11 656.02 751.98 656.25
  Q 762.82 659.10 769.17 660.79
  A 5.97 5.78 67.7 0 1 770.79 661.50
  L 788.91 672.95
  A 1.08 1.00 -2.4 0 1 789.17 673.17
  L 797.86 682.87
  A 1.52 1.34 14.9 0 1 798.00 683.08
  L 802.90 692.79
  A 1.94 1.74 -68.4 0 1 803.04 693.17
  L 804.79 701.02
  A 8.90 8.61 -52.2 0 1 805.00 702.93
  L 805.00 720.98
  A 8.88 8.43 -39.3 0 1 804.73 723.12
  L 803.02 729.93
  A 1.69 1.56 69.2 0 1 802.92 730.18
  L 798.23 739.59
  A 2.94 2.83 -11.5 0 1 797.74 740.30
  L 787.17 751.80
  A 2.75 2.42 -82.3 0 1 786.71 752.20
  L 775.38 759.75
  A 3.51 3.47 -71.9 0 1 774.68 760.11
  C 769.78 761.96 763.55 764.91 758.42 765.76
  C 753.23 766.62 748.06 768.26 742.47 768.00
  C 738.22 767.81 729.01 768.59 722.49 767.21
  Q 716.84 766.02 713.94 765.59
  C 709.83 764.98 705.49 762.81 701.17 761.24
  Q 697.51 759.91 695.12 758.25
  C 692.61 756.51 690.44 755.50 688.01 753.07
  Q 680.18 745.21 679.66 744.70
  A 6.17 5.93 -83.6 0 1 678.64 743.37
  L 671.24 730.40
  A 0.83 0.71 26.2 0 1 671.14 730.17
  Q 669.02 722.78 669.02 721.50
  Q 668.96 708.45 669.03 703.53
  A 5.37 5.13 54.3 0 1 669.21 702.24
  L 671.90 692.37
  A 2.44 2.39 -22.6 0 1 672.18 691.71
  L 678.58 680.72
  A 5.08 5.02 -6.8 0 1 679.52 679.54
  L 692.24 667.68
  A 5.14 5.02 -76.6 0 1 693.82 666.68
  L 716.96 657.42
  A 4.57 4.46 -57.0 0 1 718.43 657.09
  Z
  M 700.91 723.22
  A 2.01 1.97 23.6 0 0 701.32 724.23
  L 711.51 737.55
  A 1.70 1.62 81.3 0 0 712.21 738.09
  L 728.30 744.71
  A 3.74 3.64 55.6 0 0 729.73 745.00
  L 743.80 745.00
  A 1.35 1.28 -53.6 0 0 744.25 744.92
  L 758.55 740.15
  A 2.51 2.49 14.3 0 0 759.47 739.61
  L 768.89 731.07
  A 1.49 1.49 0.0 0 0 769.16 730.73
  L 772.64 724.63
  A 3.47 3.32 -27.8 0 0 773.08 723.31
  L 774.96 708.31
  A 1.56 1.45 -51.7 0 0 774.91 707.69
  L 772.11 697.40
  A 1.98 1.95 -72.6 0 0 771.74 696.68
  L 763.35 686.42
  A 1.15 0.97 83.6 0 0 763.15 686.23
  Q 757.50 682.14 756.63 681.89
  Q 746.49 679.02 743.57 678.15
  A 2.35 2.31 -37.4 0 0 742.77 678.05
  L 725.72 678.93
  A 3.48 3.38 -57.6 0 0 724.47 679.23
  L 714.40 683.82
  A 2.05 1.97 -78.6 0 0 713.81 684.23
  L 703.53 694.50
  A 3.36 3.25 -14.5 0 0 702.75 695.77
  L 699.25 706.25
  A 3.68 3.52 -40.4 0 0 699.09 707.79
  L 700.91 723.22
  Z"
/>
<path fill="#04183c" d="
  M 136.03 658.67
  L 136.97 700.40
  A 0.62 0.62 0.0 0 0 137.59 701.00
  L 188.26 701.00
  A 1.66 1.58 -59.9 0 0 189.12 700.75
  Q 190.99 699.53 190.99 698.24
  Q 191.00 673.33 190.99 657.68
  A 0.52 0.52 0.0 0 1 191.52 657.16
  L 219.29 657.82
  A 0.75 0.74 -89.6 0 1 220.01 658.56
  L 220.99 764.73
  A 0.44 0.43 -1.3 0 1 220.56 765.17
  L 191.32 765.83
  A 0.31 0.31 0.0 0 1 191.00 765.52
  Q 191.00 727.32 191.00 727.18
  C 191.15 724.22 190.03 723.04 187.00 723.03
  Q 176.83 722.98 137.30 723.01
  A 0.31 0.31 0.0 0 0 136.99 723.31
  L 136.01 764.78
  A 0.41 0.40 -0.0 0 1 135.61 765.17
  L 106.10 765.84
  A 0.09 0.08 90.0 0 1 106.02 765.75
  L 106.02 658.67
  A 0.67 0.66 -90.0 0 1 106.68 658.00
  L 135.35 658.00
  A 0.68 0.68 0.0 0 1 136.03 658.67
  Z"
/>
<path fill="#04183c" d="
  M 242.50 765.14
  A 0.36 0.36 0.0 0 1 242.18 764.62
  L 294.06 658.91
  A 3.29 3.29 0.0 0 1 297.24 657.07
  L 325.64 658.98
  A 0.63 0.62 78.7 0 1 326.17 659.34
  L 379.79 765.59
  A 0.29 0.28 76.8 0 1 379.54 766.00
  L 349.52 766.00
  A 0.99 0.97 75.6 0 1 348.66 765.48
  L 336.39 742.61
  A 1.18 1.16 -14.1 0 0 335.36 742.00
  L 285.41 742.00
  A 0.83 0.82 -76.6 0 0 284.67 742.46
  L 273.41 765.41
  A 0.82 0.81 13.7 0 1 272.66 765.86
  L 242.50 765.14
  Z
  M 324.86 720.86
  A 0.35 0.35 0.0 0 0 325.18 720.67
  L 325.83 719.33
  A 0.35 0.35 0.0 0 0 325.83 719.01
  L 310.34 688.30
  A 0.35 0.35 0.0 0 0 309.71 688.30
  L 294.32 719.64
  A 0.35 0.35 0.0 0 0 294.63 720.14
  L 324.86 720.86
  Z"
/>
<path fill="#04183c" d="
  M 516.60 765.54
  A 0.28 0.28 0.0 0 1 516.39 766.00
  L 480.64 766.00
  A 0.81 0.76 -19.2 0 1 480.04 765.73
  L 450.93 732.24
  A 0.69 0.66 -19.3 0 0 450.41 732.00
  L 431.26 732.00
  A 0.37 0.37 0.0 0 0 430.89 732.37
  L 430.12 764.68
  A 0.52 0.52 0.0 0 1 429.61 765.19
  L 402.22 765.81
  A 0.23 0.22 87.5 0 1 401.99 765.59
  L 401.00 658.31
  A 0.33 0.33 0.0 0 1 401.32 657.98
  Q 459.77 657.15 462.15 657.04
  Q 467.53 656.81 472.77 657.84
  Q 482.95 659.84 483.29 659.91
  A 8.87 8.42 61.8 0 1 485.17 660.53
  L 496.44 665.75
  A 2.80 2.70 82.5 0 1 497.41 666.52
  L 507.52 679.38
  A 2.99 2.91 17.7 0 1 508.00 680.28
  Q 509.98 686.34 509.99 687.50
  Q 510.05 696.64 509.96 700.69
  A 3.62 3.47 -35.7 0 1 509.78 701.67
  L 507.21 709.40
  A 2.31 2.25 -17.6 0 1 506.91 709.96
  L 500.56 718.42
  A 2.15 1.98 2.3 0 1 499.88 719.00
  L 483.33 727.88
  A 0.27 0.27 0.0 0 0 483.26 728.30
  L 516.60 765.54
  Z
  M 430.52 680.00
  A 0.35 0.35 0.0 0 0 430.17 680.36
  L 430.83 709.66
  A 0.35 0.35 0.0 0 0 431.18 710.00
  L 464.93 710.00
  A 0.35 0.35 0.0 0 0 465.06 709.97
  L 474.73 706.11
  A 0.35 0.35 0.0 0 0 474.88 705.99
  L 479.74 699.52
  A 0.35 0.35 0.0 0 0 479.81 699.38
  L 481.09 693.13
  A 0.35 0.35 0.0 0 0 481.07 692.93
  L 477.91 685.06
  A 0.35 0.35 0.0 0 0 477.77 684.89
  L 470.12 680.05
  A 0.35 0.35 0.0 0 0 469.93 680.00
  L 430.52 680.00
  Z"
/>
<path fill="#04183c" d="
  M 942.61 765.54
  A 0.28 0.28 0.0 0 1 942.40 766.00
  L 907.48 766.00
  A 1.04 1.01 69.9 0 1 906.69 765.62
  L 879.36 732.43
  A 1.20 1.20 0.0 0 0 878.44 732.00
  L 858.55 732.00
  A 0.67 0.67 0.0 0 0 857.88 732.66
  L 857.12 764.55
  A 0.66 0.66 0.0 0 1 856.48 765.19
  L 828.23 765.82
  A 0.22 0.22 0.0 0 1 828.00 765.60
  L 828.00 658.31
  A 0.31 0.31 0.0 0 1 828.31 658.00
  L 894.91 657.01
  A 10.33 10.27 -40.0 0 1 897.03 657.19
  L 911.40 659.89
  A 5.70 5.64 -26.8 0 1 912.67 660.30
  L 924.62 665.84
  A 2.22 2.12 78.8 0 1 925.23 666.27
  L 931.87 672.91
  A 1.53 1.34 11.5 0 1 932.16 673.29
  L 936.68 681.43
  A 2.61 2.56 30.8 0 1 937.01 682.69
  L 937.01 702.36
  A 2.46 2.44 58.3 0 1 936.76 703.44
  L 932.54 712.03
  A 6.18 6.07 81.0 0 1 931.37 713.67
  L 925.50 719.54
  A 3.41 3.13 -79.0 0 1 924.70 720.13
  L 910.53 727.74
  A 0.47 0.47 0.0 0 0 910.40 728.47
  L 942.61 765.54
  Z
  M 857.02 707.06
  C 857.02 708.36 858.42 709.97 859.75 709.99
  Q 863.57 710.02 891.28 710.00
  A 3.76 3.70 33.4 0 0 892.70 709.72
  L 901.40 706.24
  A 2.71 2.58 7.8 0 0 902.44 705.49
  L 906.66 700.42
  A 1.50 1.47 65.3 0 0 907.00 699.47
  L 907.00 688.62
  A 1.11 1.11 0.0 0 0 906.64 687.80
  L 898.65 680.45
  A 1.95 1.93 -22.9 0 0 897.40 679.95
  L 860.04 679.06
  A 2.96 2.96 0.0 0 0 857.01 682.01
  Q 856.98 694.50 857.02 707.06
  Z"
/>
<path fill="#04183c" d="
  M 540.78 658.00
  Q 562.29 657.95 610.29 658.03
  Q 614.72 658.04 616.68 658.56
  C 619.48 659.30 622.17 659.54 624.90 660.94
  Q 626.99 662.02 632.25 664.64
  A 3.82 3.78 83.1 0 1 633.50 665.63
  L 641.59 675.47
  A 1.36 1.33 19.4 0 1 641.88 676.06
  L 643.99 686.22
  A 1.48 1.41 47.3 0 1 643.98 686.87
  L 641.20 698.46
  A 2.07 2.06 76.0 0 1 640.57 699.52
  L 629.38 709.54
  A 0.42 0.42 0.0 0 0 629.50 710.24
  L 640.56 714.79
  A 1.02 0.99 -7.2 0 1 640.96 715.09
  L 648.66 724.45
  A 2.39 2.37 22.0 0 1 649.20 725.71
  L 650.87 739.86
  A 1.77 1.66 -39.9 0 1 650.78 740.61
  L 647.24 750.34
  A 3.44 3.42 77.6 0 1 646.44 751.60
  L 640.48 757.56
  A 2.65 2.60 11.9 0 1 639.52 758.17
  L 621.81 764.70
  A 5.05 4.95 33.9 0 1 620.13 765.01
  L 541.33 766.00
  A 0.33 0.33 0.0 0 1 541.00 765.67
  L 540.01 658.79
  A 0.78 0.78 0.0 0 1 540.78 658.00
  Z
  M 570.80 678.36
  Q 569.54 679.70 569.10 681.26
  A 2.78 2.68 -38.2 0 0 569.00 681.99
  L 569.00 697.28
  A 1.72 1.70 -60.0 0 0 569.22 698.12
  Q 570.29 700.04 572.48 700.03
  Q 581.42 699.98 605.43 700.00
  A 1.58 1.58 0.0 0 0 606.48 699.60
  L 614.50 692.42
  A 1.09 1.08 -24.7 0 0 614.85 691.48
  L 614.18 685.72
  A 1.73 1.68 19.7 0 0 613.69 684.72
  L 609.27 680.30
  A 1.38 1.28 75.7 0 0 608.79 679.99
  Q 603.33 677.99 602.51 677.99
  Q 600.18 678.01 571.65 678.00
  A 1.13 1.11 21.5 0 0 570.80 678.36
  Z
  M 570.01 744.15
  Q 571.13 745.02 571.74 745.02
  Q 577.17 744.98 606.63 745.01
  A 2.95 2.61 -48.5 0 0 607.29 744.93
  L 614.32 743.17
  A 1.40 1.39 14.3 0 0 615.00 742.77
  L 620.68 736.59
  A 1.23 1.23 0.0 0 0 620.99 735.63
  L 620.04 727.54
  A 1.34 1.34 0.0 0 0 619.53 726.65
  L 612.59 721.44
  A 2.40 2.34 -25.3 0 0 611.23 720.97
  L 572.07 720.04
  A 3.00 3.00 0.0 0 0 569.00 723.04
  L 569.00 742.10
  A 2.60 2.58 18.9 0 0 570.01 744.15
  Z"
/>
</svg>
